<?xml version="1.0" encoding="UTF-8" standalone="no"?>
<svg
   class="acr"
   aria-hidden="true"
   focusable="false"
   viewBox="0 0 24 24"
   version="1.1"
   id="svg4"
   xmlns="http://www.w3.org/2000/svg"
   xmlns:svg="http://www.w3.org/2000/svg">
  <defs
     id="defs8" />
  <path
     class="fill-color-icon-svg"
     d="m12.032 3c-3.751 0-6.9913 2.2649-8.4727 5.5212-0.051613-0.0060071-0.10422-0.010045-0.15737-0.010045-0.77358 0-1.4012 0.65435-1.4012 1.4598 0 0.57262 0.31644 1.0681 0.77679 1.3058-0.050761 0.40042-0.077009 0.8095-0.077009 1.2238 0 2.7747 1.1743 5.2742 3.0435 7.0095-0.07315 0.17682-0.11384 0.3729-0.11384 0.57757 0 0.80547 0.62765 1.4581 1.4012 1.4581 0.40083 0 0.7636-0.17511 1.0179-0.45536 1.2087 0.58321 2.5587 0.90904 3.9827 0.90904 1.4407 0 2.8057-0.33309 4.0229-0.9308 0.25243 0.25559 0.59798 0.41183 0.97768 0.41183 0.77358 0 1.4012-0.65267 1.4012-1.4581 0-0.18616-0.034497-0.36512-0.095424-0.52734 1.8581-1.7377 3.0251-4.2293 3.0251-6.9944 0-0.4049-0.024539-0.80502-0.07366-1.1953 0.42451-0.25079 0.70982-0.72473 0.70982-1.269 0-0.80547-0.62764-1.4598-1.4012-1.4598l-0.066964 0.0033482c-1.4688-3.2883-4.726-5.5798-8.4994-5.5798zm0 0.94922c3.3855 0 6.3106 2.0509 7.6373 4.9955-0.28881 0.26731-0.4721 0.65776-0.4721 1.0915 0 0.058316 0.004321 0.11576 0.011718 0.17243-4.7327 2.9164-9.4282 2.9685-14.16 0.15569l-0.26451-0.16071 0.013393-0.11551 0.0050223-0.11719c0-0.40022-0.1556-0.76291-0.40848-1.0262 1.3279-2.9447 4.252-4.9955 7.6373-4.9955zm-0.031808 2.1998a2.5672 2.5672 0 0 0-2.5664 2.5681 2.5672 2.5672 0 0 0 2.5664 2.5664 2.5672 2.5672 0 0 0 2.5664-2.5664 2.5672 2.5672 0 0 0-2.5664-2.5681zm0 0.92578a1.6418 1.6418 0 0 1 1.6406 1.6423 1.6418 1.6418 0 0 1-1.6406 1.6423 1.6418 1.6418 0 0 1-1.6406-1.6423 1.6418 1.6418 0 0 1 1.6406-1.6423zm-8.6283 2.2282c0.362 0 0.65625 0.29889 0.65625 0.66797 0 0.36907-0.29425 0.66797-0.65625 0.66797-0.362 0-0.65625-0.29889-0.65625-0.66797 0-0.36907 0.29425-0.66797 0.65625-0.66797zm17.196 0.063616c0.362 0 0.65625 0.30057 0.65625 0.66964 0 0.36908-0.29425 0.66797-0.65625 0.66797-0.362 0-0.65458-0.29889-0.65458-0.66797 0-0.36907 0.29258-0.66964 0.65458-0.66964zm-16.235 1.6942 0.31975 0.19252c2.0818 1.2233 4.169 1.9265 6.2578 2.1077l-3.8086 5.2701-0.070312-0.003348c-0.24146 0-0.46803 0.064622-0.66629 0.17746-1.6776-1.5643-2.7305-3.8118-2.7305-6.3047 0-0.37511 0.023646-0.74498 0.071987-1.1049 0.23695-0.054756 0.45102-0.17254 0.62612-0.33482zm15.295 0.025111c0.19981 0.2 0.45541 0.33846 0.74163 0.38672 0.039788 0.33681 0.060267 0.68036 0.060267 1.0279 0 2.4724-1.0359 4.7024-2.6886 6.2628-0.20804-0.1274-0.44947-0.20089-0.70815-0.20089-0.10462 0-0.20659 0.012487-0.30469 0.035156l-3.7935-5.2249c2.234-0.1661 4.4672-0.92884 6.6931-2.2868zm-7.7093 2.5195 4.0061 5.5229c-0.18383 0.24685-0.29297 0.55762-0.29297 0.89397 0 0.066057 0.003033 0.13171 0.013393 0.19587-1.095 0.53359-2.32 0.83203-3.6127 0.83203-1.29 0-2.513-0.29762-3.6044-0.83036l0.0050223-0.13225c0-0.41484-0.16643-0.79064-0.43359-1.0564l3.9191-5.4258zm5.0843 5.7472c0.362 0 0.65625 0.30057 0.65625 0.66964 0 0.36908-0.29425 0.66797-0.65625 0.66797-0.362 0-0.65625-0.29889-0.65625-0.66797 0-0.36907 0.29425-0.66964 0.65625-0.66964zm-9.9994 0.06529c0.362 0 0.65458 0.30057 0.65458 0.66964 0 0.36907-0.29257 0.66797-0.65458 0.66797-0.362 0-0.65625-0.2989-0.65625-0.66797 0-0.36908 0.29425-0.66964 0.65625-0.66964z"
     id="path2" />
</svg>
