<?xml version="1.0" encoding="UTF-8" standalone="no"?>
<!-- Generator: Adobe Illustrator 23.0.6, SVG Export Plug-In . SVG Version: 6.00 Build 0)  -->

<svg
   version="1.1"
   id="Warstwa_1"
   x="0px"
   y="0px"
   viewBox="0 0 290 71.999997"
   xml:space="preserve"
   sodipodi:docname="lepszyweb_dark.svg"
   inkscape:version="1.2.2 (732a01da63, 2022-12-09)"
   width="290"
   height="72"
   xmlns:inkscape="http://www.inkscape.org/namespaces/inkscape"
   xmlns:sodipodi="http://sodipodi.sourceforge.net/DTD/sodipodi-0.dtd"
   xmlns="http://www.w3.org/2000/svg"
   xmlns:svg="http://www.w3.org/2000/svg"
   xmlns:rdf="http://www.w3.org/1999/02/22-rdf-syntax-ns#"
   xmlns:cc="http://creativecommons.org/ns#"
   xmlns:dc="http://purl.org/dc/elements/1.1/"><metadata
   id="metadata3861"><rdf:RDF><cc:Work
       rdf:about=""><dc:format>image/svg+xml</dc:format><dc:type
         rdf:resource="http://purl.org/dc/dcmitype/StillImage" /></cc:Work></rdf:RDF></metadata><defs
   id="defs3859">
	
	
	
	
	
	
	
	
	
	
	
	
	
	
	
	
	
	
	
	
	
	
	
	
	
	
	
	
	
	
	
	
	
	
	
	
	
	
	
	
</defs><sodipodi:namedview
   pagecolor="#ffffff"
   bordercolor="#666666"
   borderopacity="1"
   objecttolerance="10"
   gridtolerance="10"
   guidetolerance="10"
   inkscape:pageopacity="0"
   inkscape:pageshadow="2"
   inkscape:window-width="1920"
   inkscape:window-height="991"
   id="namedview3857"
   showgrid="false"
   inkscape:zoom="2.1011303"
   inkscape:cx="127.31243"
   inkscape:cy="71.152179"
   inkscape:window-x="-9"
   inkscape:window-y="-9"
   inkscape:window-maximized="1"
   inkscape:current-layer="Warstwa_1"
   inkscape:showpageshadow="2"
   inkscape:pagecheckerboard="0"
   inkscape:deskcolor="#d1d1d1" />
<style
   type="text/css"
   id="style3744">
	.st0{fill:#7E4795;}
	.st1{fill:#F08319;}
	.st2{fill:#DF1465;}
	.st3{fill:#177784;}
	.st4{fill:#7E4796;}
	.st5{display:none;}
	.st6{display:inline;fill:#5C5C5C;}
	.st7{display:inline;fill:#7A7A7A;}
	.st8{display:inline;fill:#999999;}
	.st9{display:inline;fill:#BAB9B9;}
	.st10{display:inline;fill:#DF1465;}
</style>


<g
   class="st5"
   id="g3854"
   style="display:none"
   transform="translate(0,-531.28003)">
	<path
   class="st6"
   d="m 171.46,274.6 c 3.53,0.74 7.05,1.54 10.42,2.88 13.72,5.45 23.49,14.97 29.3,28.51 3.32,7.74 -1.71,16 -10.1,16.81 -4.96,0.48 -9.84,-2.5 -11.97,-7.43 -2.11,-4.89 -5.23,-8.96 -9.56,-12.07 -16.55,-11.86 -39.78,-2.76 -43.95,17.21 -3.27,15.66 7.7,31.22 23.52,33.37 12.97,1.76 24.69,-4.92 29.98,-17.07 3.38,-7.77 12.98,-9.94 19.2,-4.34 3.84,3.46 5.04,8.95 2.82,13.89 -7.77,17.29 -20.93,27.91 -39.65,31.11 -27.9,4.76 -54.58,-14.23 -59.59,-42.11 -0.78,-4.35 -0.91,-8.72 -0.74,-13.12 0.04,-0.17 0.12,-0.33 0.13,-0.5 0.26,-3.72 1.02,-7.34 2.09,-10.92 1.49,-4.98 3.83,-9.56 6.61,-13.93 0.16,-0.09 0.22,-0.22 0.17,-0.41 l -0.02,0.01 c 0.25,-0.01 0.35,-0.22 0.46,-0.38 5.04,-7.13 11.51,-12.62 19.26,-16.62 0.38,-0.17 0.77,-0.34 1.15,-0.52 7.8,-3.65 15.99,-5.28 24.6,-4.89 1.97,0.09 3.91,0.39 5.87,0.52 z"
   id="path3842"
   inkscape:connector-curvature="0"
   style="display:inline;fill:#5c5c5c" />
	<path
   class="st7"
   d="m 171.46,274.6 c -1.96,-0.13 -3.9,-0.43 -5.86,-0.52 -8.61,-0.39 -16.8,1.24 -24.6,4.89 -0.38,0.18 -0.76,0.35 -1.15,0.52 0.2,-0.37 0.37,-0.75 0.59,-1.1 2.98,-4.65 5.96,-9.29 8.94,-13.94 5.44,-8.43 10.88,-16.85 16.32,-25.28 4.16,-6.45 8.3,-12.92 12.48,-19.37 3.41,-5.27 9.82,-7.18 15.31,-4.58 6.76,3.2 8.93,11.36 4.99,17.46 -4.34,6.72 -8.67,13.44 -13,20.16 -4.68,7.26 -9.35,14.51 -14.02,21.76 z"
   id="path3844"
   inkscape:connector-curvature="0"
   style="display:inline;fill:#7a7a7a" />
	<path
   class="st8"
   d="m 149.38,264.45 c -2.98,4.64 -5.97,9.29 -8.94,13.94 -0.22,0.35 -0.4,0.73 -0.59,1.1 -7.75,4 -14.21,9.48 -19.26,16.62 -0.12,0.16 -0.21,0.37 -0.46,0.38 -0.09,-1.24 0.26,-2.42 0.45,-3.63 0.8,-5.22 1.64,-10.43 2.44,-15.65 0.4,-2.63 0.76,-5.26 1.14,-7.89 0.49,-2.97 1,-5.94 1.46,-8.92 1.16,-7.41 2.31,-14.83 3.47,-22.24 0.75,-4.78 1.53,-9.56 2.24,-14.34 0.87,-5.86 5.86,-10.27 11.78,-10.35 5.83,-0.08 10.99,4.22 11.99,9.99 0.41,2.34 -0.1,4.61 -0.45,6.9 -1.16,7.52 -2.34,15.03 -3.51,22.55 -0.59,3.85 -1.17,7.7 -1.76,11.54 z"
   id="path3846"
   inkscape:connector-curvature="0"
   style="display:inline;fill:#999999" />
	<path
   class="st9"
   d="m 124.16,269.33 c -0.38,2.63 -0.74,5.26 -1.14,7.89 -0.8,5.22 -1.64,10.43 -2.44,15.65 -0.18,1.2 -0.53,2.39 -0.45,3.63 0,0 0.02,-0.01 0.02,-0.01 -0.3,0.03 -0.16,0.25 -0.17,0.41 -2.78,4.37 -5.12,8.95 -6.61,13.93 -1.07,3.57 -1.84,7.19 -2.09,10.92 -0.01,0.17 -0.09,0.33 -0.13,0.5 -1.66,-7.56 -3.31,-15.12 -4.98,-22.68 -2.71,-12.31 -5.44,-24.63 -8.15,-36.94 -0.73,-3.32 -1.58,-6.62 -2.11,-9.97 -0.99,-6.3 3.2,-12.16 9.41,-13.45 6.24,-1.29 12.45,2.47 14,8.72 1.46,5.91 2.67,11.89 4,17.84 0.26,1.18 0.55,2.37 0.84,3.56 z"
   id="path3848"
   inkscape:connector-curvature="0"
   style="display:inline;fill:#bab9b9" />
	<path
   class="st6"
   d="m 151.15,326.43 c 0,-6.81 5.58,-12.4 12.39,-12.43 6.83,-0.03 12.48,5.62 12.46,12.47 -0.02,6.8 -5.64,12.39 -12.44,12.38 -6.81,-0.02 -12.41,-5.62 -12.41,-12.42 z"
   id="path3850"
   inkscape:connector-curvature="0"
   style="display:inline;fill:#5c5c5c" />
	<path
   class="st10"
   d="m 119.97,296.89 c 0.02,-0.15 -0.12,-0.37 0.17,-0.41 0.06,0.18 -0.01,0.32 -0.17,0.41 z"
   id="path3852"
   inkscape:connector-curvature="0"
   style="display:inline;fill:#df1465" />
</g>
<text
   x="57.349838"
   y="45.912384"
   font-family="system-ui, sans-serif"
   font-size="48px"
   fill="#4d245e"
   font-weight="700"
   id="text1067"
   style="font-style:normal;font-variant:normal;font-weight:bold;font-stretch:normal;font-size:43.8442px;font-family:'Segoe UI';-inkscape-font-specification:'Segoe UI, Bold';font-variant-ligatures:normal;font-variant-caps:normal;font-variant-numeric:normal;font-variant-east-asian:normal;fill:#ffffff;fill-opacity:1;stroke-width:1.11468">LepszyWeb</text><text
   xml:space="preserve"
   style="font-style:normal;font-variant:normal;font-weight:normal;font-stretch:normal;font-size:17.835px;line-height:0.9;font-family:sans-serif;-inkscape-font-specification:'sans-serif, Normal';font-variant-ligatures:normal;font-variant-caps:normal;font-variant-numeric:normal;font-variant-east-asian:normal;fill:#ffffff;stroke-width:1.11468;stroke-linecap:round;stroke-linejoin:round"
   x="59.893406"
   y="69.267784"
   id="text756"><tspan
     sodipodi:role="line"
     id="tspan754"
     x="59.893406"
     y="69.267784"
     style="font-style:normal;font-variant:normal;font-weight:300;font-stretch:normal;font-size:13.3762px;font-family:'Segoe UI';-inkscape-font-specification:'Segoe UI, Light';font-variant-ligatures:normal;font-variant-caps:normal;font-variant-numeric:normal;font-variant-east-asian:normal;fill:#ffffff;stroke-width:1.11468">PRACOWNIA DOSTĘPNOŚCI CYFROWEJ</tspan></text><g
   id="g1221"
   transform="matrix(1.1146846,0,0,1.1146846,-109.5904,-92.573105)"><path
     id="path3828-9"
     style="fill:none;stroke:#ffffff;stroke-width:0.38623"
     class="st0"
     d="m 116.73616,83.416078 c -2.27874,0.0302 -4.19912,1.73076 -4.53516,3.98634 -0.27424,1.84233 -0.57552,3.67914 -0.86132,5.52147 -0.44803,2.854229 -0.88791,5.710189 -1.33594,8.564452 -0.18153,1.14323 -0.37327,2.29036 -0.5625,3.43363 -0.002,0.0113 -0.004,0.0265 -0.006,0.0378 0.001,-0.0113 6.5e-4,-0.0227 0.002,-0.034 v -0.002 c -0.11187,-0.45899 -0.22586,-0.91404 -0.32617,-1.37303 -0.50983,-2.29031 -0.97323,-4.592353 -1.53711,-6.867213 -0.52045,-2.10542 -2.41512,-3.47871 -4.49024,-3.45505 -0.29643,0.003 -0.59619,0.034 -0.89648,0.0975 -2.390763,0.49436 -4.005413,2.75025 -3.623053,5.17576 0.20085,1.28999 0.5286,2.561423 0.81055,3.839853 1.042823,4.73903 2.093903,9.48166 3.136723,14.2207 0.63984,2.9063 1.27612,5.80856 1.91211,8.71483 -0.001,0.004 -0.003,0.008 -0.004,0.0151 -0.0656,1.69557 -0.0162,3.37451 0.28516,5.05077 1.93113,10.73329 12.2004,18.04554 22.94141,16.21096 7.20701,-1.22823 12.27621,-5.31794 15.26563,-11.97267 0.85355,-1.90027 0.3933,-4.01318 -1.08594,-5.34569 -2.39849,-2.15902 -6.091,-1.32518 -7.39258,1.66794 -2.03543,4.67724 -6.55095,7.24623 -11.54102,6.57033 -6.09081,-0.82654 -10.31184,-6.81664 -9.05273,-12.8457 1.6067,-7.68594 10.55103,-11.19024 16.91992,-6.62499 1.6685,1.19732 2.87056,2.7617 3.68164,4.64648 0.81879,1.90027 2.69945,3.04849 4.60742,2.86329 3.22887,-0.31294 5.16709,-3.49682 3.88867,-6.47463 -2.23625,-5.21412 -6.00152,-8.87932 -11.28124,-10.97654 -1.29774,-0.51753 -2.65221,-0.82171 -4.01172,-1.10744 1.79982,-2.78861 3.59865,-5.58263 5.40234,-8.378913 1.66464,-2.58777 3.33345,-5.17399 5.00195,-7.761709 1.51402,-2.3483 0.6755,-5.48863 -1.92383,-6.72072 -2.11267,-1.00033 -4.58135,-0.26192 -5.89453,1.76564 -1.61057,2.48345 -3.20184,4.9736 -4.80468,7.457049 -2.08921,3.24378 -4.18624,6.48268 -6.2793,9.726543 0.22756,-1.47738 0.44826,-2.95828 0.67969,-4.443373 0.45189,-2.89285 0.90353,-5.788869 1.35156,-8.681609 0.13519,-0.88059 0.33218,-1.75831 0.17382,-2.65822 -0.38237,-2.21696 -2.37125,-3.87205 -4.61524,-3.84181 z m 7.85938,38.707052 c -2.6225,0.0113 -4.76953,2.1665 -4.76953,4.78514 0,2.61475 2.15484,4.77566 4.77734,4.78322 2.61864,0.004 4.7815,-2.14893 4.78906,-4.76757 0.008,-2.63792 -2.16665,-4.81213 -4.79687,-4.80079 z" /><g
     id="g657"
     transform="matrix(0.38622956,0,0,0.38622956,61.517175,0.61143547)">
	<path
   class="st0"
   d="m 171.21,275.33 c 3.52,0.74 7.03,1.53 10.39,2.87 13.67,5.43 23.42,14.92 29.21,28.42 3.31,7.71 -1.71,15.95 -10.07,16.76 -4.94,0.48 -9.81,-2.49 -11.93,-7.41 -2.1,-4.88 -5.21,-8.93 -9.53,-12.03 -16.49,-11.82 -39.65,-2.75 -43.81,17.15 -3.26,15.61 7.67,31.12 23.44,33.26 12.92,1.75 24.61,-4.9 29.88,-17.01 3.37,-7.75 12.93,-9.91 19.14,-4.32 3.83,3.45 5.02,8.92 2.81,13.84 -7.74,17.23 -20.86,27.82 -39.52,31 -27.81,4.75 -54.4,-14.18 -59.4,-41.97 -0.78,-4.34 -0.91,-8.69 -0.74,-13.08 0.04,-0.17 0.12,-0.33 0.13,-0.5 0.25,-3.71 1.02,-7.32 2.08,-10.88 1.49,-4.97 3.81,-9.53 6.59,-13.89 0.16,-0.09 0.22,-0.22 0.17,-0.4 l -0.02,0.01 c 0.25,-0.01 0.35,-0.22 0.46,-0.38 5.03,-7.11 11.47,-12.58 19.19,-16.56 0.38,-0.17 0.76,-0.34 1.14,-0.52 7.77,-3.64 15.94,-5.26 24.52,-4.87 1.99,0.08 3.92,0.38 5.87,0.51 z"
   id="path645"
   inkscape:connector-curvature="0"
   style="fill:#7e4795" />
	<path
   class="st1"
   d="m 171.21,275.33 c -1.95,-0.13 -3.89,-0.43 -5.84,-0.52 -8.58,-0.39 -16.75,1.23 -24.52,4.87 -0.38,0.18 -0.76,0.35 -1.14,0.52 0.2,-0.37 0.37,-0.75 0.59,-1.1 2.97,-4.63 5.94,-9.26 8.91,-13.89 5.42,-8.4 10.85,-16.79 16.26,-25.19 4.15,-6.43 8.27,-12.88 12.44,-19.31 3.4,-5.25 9.79,-7.16 15.26,-4.57 6.73,3.19 8.9,11.32 4.98,17.4 -4.32,6.7 -8.64,13.4 -12.95,20.1 -4.67,7.24 -9.33,14.47 -13.99,21.69 z"
   id="path647"
   inkscape:connector-curvature="0"
   style="fill:#f08319" />
	<path
   class="st2"
   d="m 149.21,265.22 c -2.97,4.63 -5.95,9.26 -8.91,13.89 -0.22,0.35 -0.4,0.73 -0.59,1.1 -7.72,3.99 -14.17,9.45 -19.19,16.56 -0.12,0.16 -0.21,0.37 -0.46,0.38 -0.09,-1.23 0.26,-2.42 0.45,-3.62 0.8,-5.2 1.63,-10.4 2.43,-15.6 0.4,-2.62 0.76,-5.24 1.14,-7.86 0.49,-2.96 0.99,-5.93 1.46,-8.89 1.16,-7.39 2.3,-14.78 3.46,-22.17 0.74,-4.77 1.52,-9.53 2.23,-14.3 0.87,-5.84 5.84,-10.24 11.74,-10.32 5.81,-0.08 10.96,4.21 11.95,9.95 0.41,2.33 -0.1,4.6 -0.45,6.88 -1.16,7.49 -2.33,14.99 -3.5,22.48 -0.6,3.85 -1.17,7.69 -1.76,11.52 z"
   id="path649"
   inkscape:connector-curvature="0"
   style="fill:#df1465" />
	<path
   class="st3"
   d="m 124.07,270.08 c -0.38,2.62 -0.74,5.24 -1.14,7.86 -0.8,5.2 -1.64,10.4 -2.43,15.6 -0.18,1.2 -0.53,2.38 -0.45,3.62 0,0 0.02,-0.01 0.02,-0.01 -0.3,0.03 -0.16,0.25 -0.17,0.4 -2.77,4.36 -5.1,8.92 -6.59,13.89 -1.06,3.56 -1.83,7.17 -2.08,10.88 -0.01,0.17 -0.08,0.33 -0.13,0.5 -1.65,-7.54 -3.3,-15.07 -4.96,-22.61 -2.7,-12.27 -5.42,-24.55 -8.12,-36.82 -0.73,-3.31 -1.58,-6.6 -2.1,-9.94 -0.99,-6.28 3.19,-12.12 9.38,-13.4 6.22,-1.29 12.41,2.46 13.95,8.69 1.46,5.89 2.66,11.85 3.98,17.78 0.26,1.19 0.55,2.37 0.84,3.56 z"
   id="path651"
   inkscape:connector-curvature="0"
   style="fill:#177784" />
	<path
   class="st4"
   d="m 150.97,327 c 0,-6.78 5.56,-12.36 12.35,-12.39 6.81,-0.03 12.44,5.6 12.42,12.43 -0.02,6.78 -5.62,12.35 -12.4,12.34 -6.79,-0.02 -12.37,-5.61 -12.37,-12.38 z"
   id="path653"
   inkscape:connector-curvature="0"
   style="fill:#7e4796" />
	<path
   class="st2"
   d="m 119.89,297.55 c 0.02,-0.15 -0.12,-0.37 0.17,-0.4 0.06,0.18 -0.01,0.31 -0.17,0.4 z"
   id="path655"
   inkscape:connector-curvature="0"
   style="fill:#df1465" />
</g></g></svg>
